<svg width="38" height="22" viewBox="0 0 38 22" fill="none" xmlns="http://www.w3.org/2000/svg">
<mask id="path-1-outside-1_74_38" maskUnits="userSpaceOnUse" x="0" y="3" width="38" height="17" fill="black">
<rect fill="white" y="3" width="38" height="17"/>
<path d="M1.13778 18V4.90909H6.30256C7.29545 4.90909 8.14134 5.09872 8.8402 5.47798C9.53906 5.85298 10.0717 6.375 10.4382 7.04403C10.8089 7.70881 10.9943 8.47585 10.9943 9.34517C10.9943 10.2145 10.8068 10.9815 10.4318 11.6463C10.0568 12.3111 9.51349 12.8288 8.80185 13.1996C8.09446 13.5703 7.23793 13.7557 6.23224 13.7557H2.94034V11.5376H5.7848C6.31747 11.5376 6.75639 11.446 7.10156 11.2628C7.45099 11.0753 7.71094 10.8175 7.88139 10.4893C8.05611 10.157 8.14347 9.77557 8.14347 9.34517C8.14347 8.91051 8.05611 8.53125 7.88139 8.20739C7.71094 7.87926 7.45099 7.62571 7.10156 7.44673C6.75213 7.26349 6.30895 7.17188 5.77202 7.17188H3.90554V18H1.13778ZM20.878 4.90909H23.6458V13.4105C23.6458 14.3651 23.4178 15.2003 22.9618 15.9162C22.5101 16.6321 21.8773 17.1903 21.0634 17.5909C20.2495 17.9872 19.3013 18.1854 18.2189 18.1854C17.1323 18.1854 16.182 17.9872 15.3681 17.5909C14.5542 17.1903 13.9213 16.6321 13.4696 15.9162C13.0179 15.2003 12.7921 14.3651 12.7921 13.4105V4.90909H15.5598V13.174C15.5598 13.6726 15.6685 14.1158 15.8858 14.5036C16.1074 14.8913 16.4185 15.196 16.8191 15.4176C17.2196 15.6392 17.6863 15.75 18.2189 15.75C18.7559 15.75 19.2225 15.6392 19.6188 15.4176C20.0194 15.196 20.3283 14.8913 20.5456 14.5036C20.7672 14.1158 20.878 13.6726 20.878 13.174V4.90909ZM30.5636 18H25.9229V4.90909H30.6019C31.9187 4.90909 33.0522 5.17116 34.0025 5.69531C34.9528 6.2152 35.6836 6.96307 36.195 7.93892C36.7106 8.91477 36.9684 10.0824 36.9684 11.4418C36.9684 12.8054 36.7106 13.9773 36.195 14.9574C35.6836 15.9375 34.9485 16.6896 33.9897 17.2138C33.0352 17.7379 31.8931 18 30.5636 18ZM28.6907 15.6286H30.4485C31.2667 15.6286 31.9549 15.4837 32.5131 15.1939C33.0756 14.8999 33.4975 14.446 33.7788 13.8324C34.0643 13.2145 34.207 12.4176 34.207 11.4418C34.207 10.4744 34.0643 9.68395 33.7788 9.07031C33.4975 8.45668 33.0778 8.00497 32.5195 7.7152C31.9613 7.42543 31.2731 7.28054 30.4549 7.28054H28.6907V15.6286Z"/>
</mask>
<path d="M1.13778 18V4.90909H6.30256C7.29545 4.90909 8.14134 5.09872 8.8402 5.47798C9.53906 5.85298 10.0717 6.375 10.4382 7.04403C10.8089 7.70881 10.9943 8.47585 10.9943 9.34517C10.9943 10.2145 10.8068 10.9815 10.4318 11.6463C10.0568 12.3111 9.51349 12.8288 8.80185 13.1996C8.09446 13.5703 7.23793 13.7557 6.23224 13.7557H2.94034V11.5376H5.7848C6.31747 11.5376 6.75639 11.446 7.10156 11.2628C7.45099 11.0753 7.71094 10.8175 7.88139 10.4893C8.05611 10.157 8.14347 9.77557 8.14347 9.34517C8.14347 8.91051 8.05611 8.53125 7.88139 8.20739C7.71094 7.87926 7.45099 7.62571 7.10156 7.44673C6.75213 7.26349 6.30895 7.17188 5.77202 7.17188H3.90554V18H1.13778ZM20.878 4.90909H23.6458V13.4105C23.6458 14.3651 23.4178 15.2003 22.9618 15.9162C22.5101 16.6321 21.8773 17.1903 21.0634 17.5909C20.2495 17.9872 19.3013 18.1854 18.2189 18.1854C17.1323 18.1854 16.182 17.9872 15.3681 17.5909C14.5542 17.1903 13.9213 16.6321 13.4696 15.9162C13.0179 15.2003 12.7921 14.3651 12.7921 13.4105V4.90909H15.5598V13.174C15.5598 13.6726 15.6685 14.1158 15.8858 14.5036C16.1074 14.8913 16.4185 15.196 16.8191 15.4176C17.2196 15.6392 17.6863 15.75 18.2189 15.75C18.7559 15.75 19.2225 15.6392 19.6188 15.4176C20.0194 15.196 20.3283 14.8913 20.5456 14.5036C20.7672 14.1158 20.878 13.6726 20.878 13.174V4.90909ZM30.5636 18H25.9229V4.90909H30.6019C31.9187 4.90909 33.0522 5.17116 34.0025 5.69531C34.9528 6.2152 35.6836 6.96307 36.195 7.93892C36.7106 8.91477 36.9684 10.0824 36.9684 11.4418C36.9684 12.8054 36.7106 13.9773 36.195 14.9574C35.6836 15.9375 34.9485 16.6896 33.9897 17.2138C33.0352 17.7379 31.8931 18 30.5636 18ZM28.6907 15.6286H30.4485C31.2667 15.6286 31.9549 15.4837 32.5131 15.1939C33.0756 14.8999 33.4975 14.446 33.7788 13.8324C34.0643 13.2145 34.207 12.4176 34.207 11.4418C34.207 10.4744 34.0643 9.68395 33.7788 9.07031C33.4975 8.45668 33.0778 8.00497 32.5195 7.7152C31.9613 7.42543 31.2731 7.28054 30.4549 7.28054H28.6907V15.6286Z" fill="#FC0404"/>
<path d="M1.13778 18H0.137784V19H1.13778V18ZM1.13778 4.90909V3.90909H0.137784V4.90909H1.13778ZM8.8402 5.47798L8.36322 6.35691L8.36738 6.35914L8.8402 5.47798ZM10.4382 7.04403L9.56114 7.52446L9.56485 7.5311L10.4382 7.04403ZM8.80185 13.1996L8.33982 12.3127L8.33764 12.3138L8.80185 13.1996ZM2.94034 13.7557H1.94034V14.7557H2.94034V13.7557ZM2.94034 11.5376V10.5376H1.94034V11.5376H2.94034ZM7.10156 11.2628L7.57046 12.146L7.57438 12.1439L7.10156 11.2628ZM7.88139 10.4893L6.99622 10.0241L6.99399 10.0284L7.88139 10.4893ZM7.88139 8.20739L6.99399 8.66838L6.99759 8.6753L7.00129 8.68218L7.88139 8.20739ZM7.10156 7.44673L6.63713 8.33239L6.64569 8.33678L7.10156 7.44673ZM3.90554 7.17188V6.17188H2.90554V7.17188H3.90554ZM3.90554 18V19H4.90554V18H3.90554ZM2.13778 18V4.90909H0.137784V18H2.13778ZM1.13778 5.90909H6.30256V3.90909H1.13778V5.90909ZM6.30256 5.90909C7.1696 5.90909 7.84284 6.0745 8.36323 6.3569L9.31717 4.59907C8.43983 4.12295 7.42131 3.90909 6.30256 3.90909V5.90909ZM8.36738 6.35914C8.90268 6.64638 9.29159 7.03231 9.56117 7.52445L11.3153 6.56362C10.8519 5.71768 10.1754 5.05959 9.31302 4.59682L8.36738 6.35914ZM9.56485 7.5311C9.84135 8.02691 9.99432 8.62181 9.99432 9.34517H11.9943C11.9943 8.3299 11.7765 7.3907 11.3116 6.55696L9.56485 7.5311ZM9.99432 9.34517C9.99432 10.0666 9.84008 10.66 9.56084 11.155L11.3028 12.1376C11.7736 11.3031 11.9943 10.3624 11.9943 9.34517H9.99432ZM9.56084 11.155C9.286 11.6422 8.889 12.0266 8.33983 12.3127L9.26387 14.0864C10.138 13.6311 10.8276 12.9799 11.3028 12.1376L9.56084 11.155ZM8.33764 12.3138C7.80584 12.5926 7.11722 12.7557 6.23224 12.7557V14.7557C7.35863 14.7557 8.38308 14.5481 9.26605 14.0853L8.33764 12.3138ZM6.23224 12.7557H2.94034V14.7557H6.23224V12.7557ZM3.94034 13.7557V11.5376H1.94034V13.7557H3.94034ZM2.94034 12.5376H5.7848V10.5376H2.94034V12.5376ZM5.7848 12.5376C6.42441 12.5376 7.03805 12.4287 7.57045 12.146L6.63267 10.3795C6.47473 10.4634 6.21054 10.5376 5.7848 10.5376V12.5376ZM7.57438 12.1439C8.08762 11.8685 8.49875 11.4702 8.7688 10.9503L6.99399 10.0284C6.92313 10.1648 6.81437 10.282 6.62875 10.3816L7.57438 12.1439ZM8.76656 10.9546C9.02707 10.459 9.14347 9.91381 9.14347 9.34517H7.14347C7.14347 9.63733 7.08514 9.85491 6.99623 10.0241L8.76656 10.9546ZM9.14347 9.34517C9.14347 8.7748 9.02803 8.22667 8.76149 7.7326L7.00129 8.68218C7.08419 8.83583 7.14347 9.04623 7.14347 9.34517H9.14347ZM8.7688 7.7464C8.49648 7.22219 8.07969 6.82418 7.55744 6.55669L6.64569 8.33678C6.8223 8.42724 6.92539 8.53633 6.99399 8.66838L8.7688 7.7464ZM7.56597 6.56111C7.03102 6.28059 6.41513 6.17188 5.77202 6.17188V8.17188C6.20277 8.17188 6.47324 8.2464 6.63715 8.33235L7.56597 6.56111ZM5.77202 6.17188H3.90554V8.17188H5.77202V6.17188ZM2.90554 7.17188V18H4.90554V7.17188H2.90554ZM3.90554 17H1.13778V19H3.90554V17ZM20.878 4.90909V3.90909H19.878V4.90909H20.878ZM23.6458 4.90909H24.6458V3.90909H23.6458V4.90909ZM22.9618 15.9162L22.1184 15.379L22.1161 15.3826L22.9618 15.9162ZM21.0634 17.5909L21.5012 18.49L21.505 18.4881L21.0634 17.5909ZM15.3681 17.5909L14.9265 18.4881L14.9303 18.49L15.3681 17.5909ZM13.4696 15.9162L12.6239 16.4498L12.6239 16.4498L13.4696 15.9162ZM12.7921 4.90909V3.90909H11.7921V4.90909H12.7921ZM15.5598 4.90909H16.5598V3.90909H15.5598V4.90909ZM15.8858 14.5036L15.0135 14.9925L15.0176 14.9997L15.8858 14.5036ZM16.8191 15.4176L16.335 16.2926L16.335 16.2926L16.8191 15.4176ZM19.6188 15.4176L19.1347 14.5426L19.1308 14.5448L19.6188 15.4176ZM20.5456 14.5036L19.6774 14.0074L19.6733 14.0147L20.5456 14.5036ZM20.878 5.90909H23.6458V3.90909H20.878V5.90909ZM22.6458 4.90909V13.4105H24.6458V4.90909H22.6458ZM22.6458 13.4105C22.6458 14.1992 22.4597 14.843 22.1184 15.379L23.8053 16.4534C24.3759 15.5575 24.6458 14.5309 24.6458 13.4105H22.6458ZM22.1161 15.3826C21.77 15.931 21.2824 16.3686 20.6218 16.6937L21.505 18.4881C22.4722 18.0121 23.2502 17.3332 23.8076 16.4498L22.1161 15.3826ZM20.6256 16.6918C19.9722 17.01 19.179 17.1854 18.2189 17.1854V19.1854C19.4237 19.1854 20.5267 18.9645 21.5012 18.49L20.6256 16.6918ZM18.2189 17.1854C17.2539 17.1854 16.4587 17.0097 15.8058 16.6918L14.9303 18.49C15.9052 18.9647 17.0106 19.1854 18.2189 19.1854V17.1854ZM15.8096 16.6937C15.1491 16.3686 14.6614 15.931 14.3154 15.3826L12.6239 16.4498C13.1813 17.3332 13.9592 18.0121 14.9265 18.4881L15.8096 16.6937ZM14.3154 15.3826C13.9769 14.8461 13.7921 14.201 13.7921 13.4105H11.7921C11.7921 14.5291 12.059 15.5544 12.6239 16.4498L14.3154 15.3826ZM13.7921 13.4105V4.90909H11.7921V13.4105H13.7921ZM12.7921 5.90909H15.5598V3.90909H12.7921V5.90909ZM14.5598 4.90909V13.174H16.5598V4.90909H14.5598ZM14.5598 13.174C14.5598 13.8226 14.7027 14.4378 15.0135 14.9924L16.7582 14.0147C16.6343 13.7937 16.5598 13.5226 16.5598 13.174H14.5598ZM15.0176 14.9997C15.3325 15.5507 15.7783 15.9847 16.335 16.2926L17.3031 14.5426C17.0587 14.4074 16.8824 14.232 16.7541 14.0074L15.0176 14.9997ZM16.335 16.2926C16.9064 16.6087 17.5448 16.75 18.2189 16.75V14.75C17.8277 14.75 17.5329 14.6697 17.3031 14.5426L16.335 16.2926ZM18.2189 16.75C18.8955 16.75 19.5363 16.6095 20.1068 16.2904L19.1308 14.5448C18.9087 14.6689 18.6163 14.75 18.2189 14.75V16.75ZM20.1028 16.2926C20.6611 15.9838 21.1069 15.5476 21.418 14.9924L19.6733 14.0147C19.5497 14.2351 19.3776 14.4082 19.1347 14.5426L20.1028 16.2926ZM21.4139 14.9997C21.7315 14.4438 21.878 13.8259 21.878 13.174H19.878C19.878 13.5192 19.8029 13.7877 19.6774 14.0074L21.4139 14.9997ZM21.878 13.174V4.90909H19.878V13.174H21.878ZM25.9229 18H24.9229V19H25.9229V18ZM25.9229 4.90909V3.90909H24.9229V4.90909H25.9229ZM34.0025 5.69531L33.5195 6.57095L33.5225 6.57261L34.0025 5.69531ZM36.195 7.93892L35.3092 8.40307L35.3108 8.4061L36.195 7.93892ZM36.195 14.9574L35.31 14.4918L35.3084 14.4948L36.195 14.9574ZM33.9897 17.2138L33.51 16.3363L33.5084 16.3372L33.9897 17.2138ZM28.6907 15.6286H27.6907V16.6286H28.6907V15.6286ZM32.5131 15.1939L32.9739 16.0814L32.9764 16.0801L32.5131 15.1939ZM33.7788 13.8324L32.871 13.4129L32.8697 13.4157L33.7788 13.8324ZM33.7788 9.07031L32.8697 9.48697L32.8721 9.49216L33.7788 9.07031ZM32.5195 7.7152L32.9802 6.82765L32.9802 6.82765L32.5195 7.7152ZM28.6907 7.28054V6.28054H27.6907V7.28054H28.6907ZM30.5636 17H25.9229V19H30.5636V17ZM26.9229 18V4.90909H24.9229V18H26.9229ZM25.9229 5.90909H30.6019V3.90909H25.9229V5.90909ZM30.6019 5.90909C31.7856 5.90909 32.7456 6.14408 33.5195 6.57095L34.4855 4.81968C33.3588 4.19825 32.0518 3.90909 30.6019 3.90909V5.90909ZM33.5225 6.57261C34.2966 6.99611 34.8877 7.59877 35.3092 8.40307L37.0807 7.47477C36.4795 6.32737 35.6089 5.43429 34.4824 4.81802L33.5225 6.57261ZM35.3108 8.4061C35.7347 9.20835 35.9684 10.208 35.9684 11.4418H37.9684C37.9684 9.95673 37.6865 8.6212 37.0791 7.47174L35.3108 8.4061ZM35.9684 11.4418C35.9684 12.6801 35.7345 13.6848 35.31 14.4918L37.08 15.423C37.6866 14.2698 37.9684 12.9306 37.9684 11.4418H35.9684ZM35.3084 14.4948C34.8874 15.3016 34.293 15.9083 33.51 16.3363L34.4694 18.0912C35.604 17.4709 36.4797 16.5734 37.0815 15.42L35.3084 14.4948ZM33.5084 16.3372C32.7306 16.7643 31.7617 17 30.5636 17V19C32.0245 19 33.3397 18.7115 34.471 18.0903L33.5084 16.3372ZM28.6907 16.6286H30.4485V14.6286H28.6907V16.6286ZM30.4485 16.6286C31.3804 16.6286 32.237 16.4639 32.9739 16.0814L32.0524 14.3063C31.6728 14.5034 31.153 14.6286 30.4485 14.6286V16.6286ZM32.9764 16.0801C33.7484 15.6766 34.3204 15.0506 34.6878 14.249L32.8697 13.4157C32.6746 13.8414 32.4029 14.1232 32.0499 14.3077L32.9764 16.0801ZM34.6865 14.2518C35.0532 13.4583 35.207 12.5043 35.207 11.4418H33.207C33.207 12.331 33.0753 12.9707 32.871 13.4129L34.6865 14.2518ZM35.207 11.4418C35.207 10.3868 35.0529 9.43833 34.6854 8.64846L32.8721 9.49216C33.0756 9.92957 33.207 10.5621 33.207 11.4418H35.207ZM34.6878 8.65366C34.321 7.85333 33.7511 7.22781 32.9802 6.82765L32.0588 8.60275C32.4044 8.78213 32.674 9.06002 32.8697 9.48697L34.6878 8.65366ZM32.9802 6.82765C32.2434 6.44514 31.3868 6.28054 30.4549 6.28054V8.28054C31.1594 8.28054 31.6792 8.40571 32.0588 8.60275L32.9802 6.82765ZM30.4549 6.28054H28.6907V8.28054H30.4549V6.28054ZM27.6907 7.28054V15.6286H29.6907V7.28054H27.6907Z" fill="white" mask="url(#path-1-outside-1_74_38)"/>
</svg>
