<svg width="14" height="14" viewBox="0 0 14 14" fill="none" xmlns="http://www.w3.org/2000/svg">
<g clip-path="url(#clip0_74_59)">
<path d="M0 1.47656V7.80469C0 8.15418 0.283316 8.4375 0.632813 8.4375H2.74219C3.09169 8.4375 3.375 8.15418 3.375 7.80469V1.47656C3.375 1.12707 3.09169 0.84375 2.74219 0.84375H0.632813C0.283316 0.84375 0 1.12707 0 1.47656ZM1.05469 6.75C1.05469 6.4005 1.338 6.11719 1.6875 6.11719C2.037 6.11719 2.32031 6.4005 2.32031 6.75C2.32031 7.0995 2.037 7.38281 1.6875 7.38281C1.338 7.38281 1.05469 7.0995 1.05469 6.75ZM8.22657 13.5C7.6944 13.5 7.44913 12.464 7.3319 11.9761C7.19463 11.4048 7.0527 10.8141 6.66236 10.423C5.80624 9.56546 5.3571 8.47273 4.31259 7.44061C4.28287 7.41123 4.25927 7.37624 4.24317 7.33767C4.22706 7.29911 4.21877 7.25773 4.21878 7.21593V1.57942C4.21878 1.40695 4.35702 1.26623 4.52946 1.26307C4.94688 1.25542 5.49698 1.02368 5.91772 0.836499C6.75499 0.46401 7.79702 0.000448242 9.07018 0H9.14517C10.2731 0 11.6069 0.0108897 12.1451 0.784081C12.3663 1.10199 12.4205 1.49689 12.3072 1.9609C12.7373 2.41054 12.968 3.24928 12.7391 3.93203C13.2017 4.54987 13.2439 5.41208 12.9846 6.02741L12.9875 6.03031C13.301 6.34537 13.5022 6.85452 13.5 7.32749C13.4959 8.12779 12.8103 8.85938 11.9298 8.85938H9.24758C9.44025 9.60662 10.125 10.2339 10.125 11.3523C10.125 13.2891 8.85938 13.5 8.22657 13.5Z" fill="#FC0404"/>
</g>
<defs>
<clipPath id="clip0_74_59">
<rect width="13.5" height="13.5" fill="white"/>
</clipPath>
</defs>
</svg>
