<svg width="15" height="14" viewBox="0 0 15 14" fill="none" xmlns="http://www.w3.org/2000/svg">
<g clip-path="url(#clip0_74_63)">
<path d="M2.87422 6.125H0.663281C0.296957 6.125 0 6.41881 0 6.78125V13.3438C0 13.7062 0.296957 14 0.663281 14H2.87422C3.24054 14 3.5375 13.7062 3.5375 13.3438V6.78125C3.5375 6.41881 3.24054 6.125 2.87422 6.125ZM1.76875 12.9062C1.40243 12.9062 1.10547 12.6124 1.10547 12.25C1.10547 11.8876 1.40243 11.5938 1.76875 11.5938C2.13507 11.5938 2.43203 11.8876 2.43203 12.25C2.43203 12.6124 2.13507 12.9062 1.76875 12.9062ZM10.6125 2.2272C10.6125 3.38702 9.89478 4.03758 9.69283 4.8125H12.5041C13.4271 4.8125 14.1457 5.57118 14.15 6.40112C14.1523 6.89161 13.9414 7.41964 13.6127 7.74635L13.6097 7.74936C13.8815 8.38748 13.8373 9.28162 13.3525 9.92234C13.5924 10.6304 13.3506 11.5002 12.8997 11.9665C13.0185 12.4477 12.9617 12.8572 12.7298 13.1869C12.1657 13.9887 10.7677 14 9.58549 14L9.50687 14C8.17237 13.9995 7.0802 13.5188 6.20262 13.1325C5.76162 12.9384 5.18501 12.6981 4.74752 12.6901C4.56677 12.6868 4.42188 12.5409 4.42188 12.3621V6.51678C4.42188 6.42928 4.45731 6.34531 4.52021 6.28379C5.61501 5.21344 6.08577 4.08023 6.98311 3.19091C7.39224 2.78534 7.54104 2.17273 7.68489 1.5803C7.80779 1.07442 8.06487 0 8.62266 0C9.28594 0 10.6125 0.21875 10.6125 2.2272Z" fill="#FC0404"/>
</g>
<defs>
<clipPath id="clip0_74_63">
<rect width="14.15" height="14" fill="white"/>
</clipPath>
</defs>
</svg>
